<?xml version="1.0" standalone="no"?>
<!DOCTYPE svg PUBLIC "-//W3C//DTD SVG 1.1//EN"
"http://www.w3.org/Graphics/SVG/1.1/DTD/svg11.dtd">

<svg width="743" height="652" view_box="0 0 743 652"
xmlns="http://www.w3.org/2000/svg"
xmlns:link="http://www.w3.org/1999/xlink">\n\n<desc>Généré par Mocodo 2.3.7 le Fri, 03 Jul 2020 04:35:35</desc>

<rect id="frame" x="0" y="0" width="743" height="652" fill="#f7f7f7" stroke="none" stroke-width="0"/>

<!-- Association IS DELIVERED BY -->
<line x1="382" y1="584" x2="233" y2="584" stroke="#d6604d" stroke-width="2"/>
<text x="300" y="601.0" fill="#2166ac" font-family="Verdana" font-size="12">0,1</text>
<line x1="78" y1="584" x2="233" y2="584" stroke="#d6604d" stroke-width="2"/>
<text x="116" y="601.0" fill="#2166ac" font-family="Verdana" font-size="12">0,N</text>
<g id="association-IS DELIVERED BY">
	<path d="M 280 559 a 14 14 90 0 1 14 14 V 584 h -122 V 573 a 14 14 90 0 1 14 -14" fill="#f4a582" stroke="#f4a582" stroke-width="0"/>
	<path d="M 294 584.0 v 11 a 14 14 90 0 1 -14 14 H 186 a 14 14 90 0 1 -14 -14 V 584.0 H 122" fill="#fddbc7" stroke="#fddbc7" stroke-width="0"/>
	<rect x="172" y="559" width="122" height="50" fill="none" rx="14" stroke="#d6604d" stroke-width="2"/>
	<line x1="172" y1="584" x2="294" y2="584" stroke="#d6604d" stroke-width="1"/>
	<text x="179" y="576.7" fill="#000000" font-family="Verdana" font-size="12">IS DELIVERED BY</text>
	<text x="179" y="601.8" fill="#000000" font-family="Verdana" font-size="12">shipping mode</text>
</g>

<!-- Association BELONGS TO -->
<line x1="510" y1="356" x2="510" y2="136" stroke="#d6604d" stroke-width="2"/>
<text x="515.0" y="204" fill="#2166ac" font-family="Verdana" font-size="12">1,N</text>
<line x1="662" y1="136" x2="510" y2="136" stroke="#d6604d" stroke-width="2"/>
<text x="563" y="153.0" fill="#2166ac" font-family="Verdana" font-size="12">0,N</text>
<g id="association-BELONGS TO">
	<path d="M 544 111 a 14 14 90 0 1 14 14 V 136 h -96 V 125 a 14 14 90 0 1 14 -14" fill="#f4a582" stroke="#f4a582" stroke-width="0"/>
	<path d="M 558 136.0 v 11 a 14 14 90 0 1 -14 14 H 476 a 14 14 90 0 1 -14 -14 V 136.0 H 96" fill="#fddbc7" stroke="#fddbc7" stroke-width="0"/>
	<rect x="462" y="111" width="96" height="50" fill="none" rx="14" stroke="#d6604d" stroke-width="2"/>
	<line x1="462" y1="136" x2="558" y2="136" stroke="#d6604d" stroke-width="1"/>
	<text x="469" y="128.7" fill="#000000" font-family="Verdana" font-size="12">BELONGS TO</text>
</g>

<!-- Association SOLD BY -->
<line x1="510" y1="356" x2="382" y2="136" stroke="#d6604d" stroke-width="2"/>
<text x="432" y="279.109846604" fill="#2166ac" font-family="Verdana" font-size="12">1,1</text>
<line x1="432" y1="281.109846604" x2="453" y2="281.109846604" stroke="#2166ac" stroke-width="1"/>
<line x1="233" y1="136" x2="382" y2="136" stroke="#d6604d" stroke-width="2"/>
<text x="290" y="128.0" fill="#2166ac" font-family="Verdana" font-size="12">0,N</text>
<g id="association-SOLD BY">
	<path d="M 405 111 a 14 14 90 0 1 14 14 V 136 h -74 V 125 a 14 14 90 0 1 14 -14" fill="#f4a582" stroke="#f4a582" stroke-width="0"/>
	<path d="M 419 136.0 v 11 a 14 14 90 0 1 -14 14 H 359 a 14 14 90 0 1 -14 -14 V 136.0 H 74" fill="#fddbc7" stroke="#fddbc7" stroke-width="0"/>
	<rect x="345" y="111" width="74" height="50" fill="none" rx="14" stroke="#d6604d" stroke-width="2"/>
	<line x1="345" y1="136" x2="419" y2="136" stroke="#d6604d" stroke-width="1"/>
	<text x="355" y="128.7" fill="#000000" font-family="Verdana" font-size="12">SOLD BY</text>
	<text x="352" y="153.8" fill="#000000" font-family="Verdana" font-size="12">role seller</text>
</g>

<!-- Association CONTAINS -->
<line x1="510" y1="356" x2="510" y2="584" stroke="#d6604d" stroke-width="2"/>
<text x="515.0" y="517" fill="#2166ac" font-family="Verdana" font-size="12">0,N</text>
<line x1="382" y1="584" x2="510" y2="584" stroke="#d6604d" stroke-width="2"/>
<text x="443" y="601.0" fill="#2166ac" font-family="Verdana" font-size="12">1,N</text>
<g id="association-CONTAINS">
	<path d="M 536 559 a 14 14 90 0 1 14 14 V 584 h -80 V 573 a 14 14 90 0 1 14 -14" fill="#f4a582" stroke="#f4a582" stroke-width="0"/>
	<path d="M 550 584.0 v 11 a 14 14 90 0 1 -14 14 H 484 a 14 14 90 0 1 -14 -14 V 584.0 H 80" fill="#fddbc7" stroke="#fddbc7" stroke-width="0"/>
	<rect x="470" y="559" width="80" height="50" fill="none" rx="14" stroke="#d6604d" stroke-width="2"/>
	<line x1="470" y1="584" x2="550" y2="584" stroke="#d6604d" stroke-width="1"/>
	<text x="477" y="576.7" fill="#000000" font-family="Verdana" font-size="12">CONTAINS</text>
</g>

<!-- Association HAS RECEIVED -->
<line x1="382" y1="584" x2="233" y2="356" stroke="#d6604d" stroke-width="2"/>
<text x="343.422907924" y="517" fill="#2166ac" font-family="Verdana" font-size="12">1,1</text>
<line x1="343.422907924" y1="519" x2="364.422907924" y2="519" stroke="#2166ac" stroke-width="1"/>
<line x1="233" y1="136" x2="233" y2="356" stroke="#d6604d" stroke-width="2"/>
<text x="206.0" y="280" fill="#2166ac" font-family="Verdana" font-size="12">0,N</text>
<g id="association-HAS RECEIVED">
	<path d="M 273 331 a 14 14 90 0 1 14 14 V 356 h -108 V 345 a 14 14 90 0 1 14 -14" fill="#f4a582" stroke="#f4a582" stroke-width="0"/>
	<path d="M 287 356.0 v 11 a 14 14 90 0 1 -14 14 H 193 a 14 14 90 0 1 -14 -14 V 356.0 H 108" fill="#fddbc7" stroke="#fddbc7" stroke-width="0"/>
	<rect x="179" y="331" width="108" height="50" fill="none" rx="14" stroke="#d6604d" stroke-width="2"/>
	<line x1="179" y1="356" x2="287" y2="356" stroke="#d6604d" stroke-width="1"/>
	<text x="186" y="348.7" fill="#000000" font-family="Verdana" font-size="12">HAS RECEIVED</text>
	<text x="186" y="373.8" fill="#000000" font-family="Verdana" font-size="12">role seller</text>
</g>

<!-- Association HAS MADE -->
<line x1="382" y1="584" x2="382" y2="356" stroke="#d6604d" stroke-width="2"/>
<text x="387.0" y="517" fill="#2166ac" font-family="Verdana" font-size="12">1,1</text>
<line x1="387.0" y1="519" x2="408.0" y2="519" stroke="#2166ac" stroke-width="1"/>
<line x1="233" y1="136" x2="382" y2="356" stroke="#d6604d" stroke-width="2"/>
<text x="290" y="209.960080643" fill="#2166ac" font-family="Verdana" font-size="12">0,N</text>
<g id="association-HAS MADE">
	<path d="M 408 331 a 14 14 90 0 1 14 14 V 356 h -80 V 345 a 14 14 90 0 1 14 -14" fill="#f4a582" stroke="#f4a582" stroke-width="0"/>
	<path d="M 422 356.0 v 11 a 14 14 90 0 1 -14 14 H 356 a 14 14 90 0 1 -14 -14 V 356.0 H 80" fill="#fddbc7" stroke="#fddbc7" stroke-width="0"/>
	<rect x="342" y="331" width="80" height="50" fill="none" rx="14" stroke="#d6604d" stroke-width="2"/>
	<line x1="342" y1="356" x2="422" y2="356" stroke="#d6604d" stroke-width="1"/>
	<text x="349" y="348.7" fill="#000000" font-family="Verdana" font-size="12">HAS MADE</text>
	<text x="349" y="373.8" fill="#000000" font-family="Verdana" font-size="12">role buyer</text>
</g>

<!-- Association HAS -->
<line x1="510" y1="356" x2="662" y2="356" stroke="#d6604d" stroke-width="2"/>
<text x="567" y="373.0" fill="#2166ac" font-family="Verdana" font-size="12">1,1</text>
<line x1="567" y1="375.0" x2="588" y2="375.0" stroke="#2166ac" stroke-width="1"/>
<line x1="662" y1="584" x2="662" y2="356" stroke="#d6604d" stroke-width="2"/>
<text x="667.0" y="517" fill="#2166ac" font-family="Verdana" font-size="12">0,N</text>
<g id="association-HAS">
	<path d="M 668 331 a 14 14 90 0 1 14 14 V 356 h -40 V 345 a 14 14 90 0 1 14 -14" fill="#f4a582" stroke="#f4a582" stroke-width="0"/>
	<path d="M 682 356.0 v 11 a 14 14 90 0 1 -14 14 H 656 a 14 14 90 0 1 -14 -14 V 356.0 H 40" fill="#fddbc7" stroke="#fddbc7" stroke-width="0"/>
	<rect x="642" y="331" width="40" height="50" fill="none" rx="14" stroke="#d6604d" stroke-width="2"/>
	<line x1="642" y1="356" x2="682" y2="356" stroke="#d6604d" stroke-width="1"/>
	<text x="649" y="348.7" fill="#000000" font-family="Verdana" font-size="12">HAS</text>
</g>

<!-- Association IS DELIVERED -->
<line x1="78" y1="356" x2="78" y2="136" stroke="#d6604d" stroke-width="2"/>
<text x="83.0" y="263" fill="#2166ac" font-family="Verdana" font-size="12">1,1</text>
<line x1="83.0" y1="265" x2="104.0" y2="265" stroke="#2166ac" stroke-width="1"/>
<line x1="233" y1="136" x2="78" y2="136" stroke="#d6604d" stroke-width="2"/>
<text x="154" y="153.0" fill="#2166ac" font-family="Verdana" font-size="12">1,N</text>
<g id="association-IS DELIVERED">
	<path d="M 115 111 a 14 14 90 0 1 14 14 V 136 h -102 V 125 a 14 14 90 0 1 14 -14" fill="#f4a582" stroke="#f4a582" stroke-width="0"/>
	<path d="M 129 136.0 v 11 a 14 14 90 0 1 -14 14 H 41 a 14 14 90 0 1 -14 -14 V 136.0 H 102" fill="#fddbc7" stroke="#fddbc7" stroke-width="0"/>
	<rect x="27" y="111" width="102" height="50" fill="none" rx="14" stroke="#d6604d" stroke-width="2"/>
	<line x1="27" y1="136" x2="129" y2="136" stroke="#d6604d" stroke-width="1"/>
	<text x="34" y="128.7" fill="#000000" font-family="Verdana" font-size="12">IS DELIVERED</text>
	<text x="34" y="153.8" fill="#000000" font-family="Verdana" font-size="12">role buyer</text>
</g>

<!-- Entity DELIVERY_ADDRESS -->
<g id="entity-DELIVERY_ADDRESS">
	<g id="frame-DELIVERY_ADDRESS">
		<rect x="9" y="271" width="138" height="25" fill="#92c5de" stroke="#92c5de" stroke-width="0"/>
		<rect x="9" y="296.0" width="138" height="145" fill="#d1e5f0" stroke="#d1e5f0" stroke-width="0"/>
		<rect x="9" y="271" width="138" height="170" fill="none" stroke="#4393c3" stroke-width="2"/>
		<line x1="9" y1="296" x2="147" y2="296" stroke="#4393c3" stroke-width="1"/>
	</g>
	<text x="14" y="288.7" fill="#000000" font-family="Verdana" font-size="12">DELIVERY_ADDRESS</text>
	<text x="14" y="313.7" fill="#000000" font-family="Verdana" font-size="12">firstname</text>
	<line x1="14" y1="316" x2="72" y2="316" style="fill:none;stroke:#000000;stroke-width:1;stroke-dasharray:4;"/>
	<text x="14" y="330.7" fill="#000000" font-family="Verdana" font-size="12">lastname</text>
	<text x="14" y="347.7" fill="#000000" font-family="Verdana" font-size="12">address</text>
	<text x="14" y="364.8" fill="#000000" font-family="Verdana" font-size="12">zip code</text>
	<text x="14" y="381.8" fill="#000000" font-family="Verdana" font-size="12">country</text>
	<text x="14" y="398.8" fill="#000000" font-family="Verdana" font-size="12">phone number</text>
	<text x="14" y="415.8" fill="#000000" font-family="Verdana" font-size="12">created at</text>
	<text x="14" y="432.8" fill="#000000" font-family="Verdana" font-size="12">updated at</text>
</g>

<!-- Entity PRODUCT -->
<g id="entity-PRODUCT">
	<g id="frame-PRODUCT">
		<rect x="458" y="212" width="104" height="25" fill="#92c5de" stroke="#92c5de" stroke-width="0"/>
		<rect x="458" y="237.0" width="104" height="263" fill="#d1e5f0" stroke="#d1e5f0" stroke-width="0"/>
		<rect x="458" y="212" width="104" height="288" fill="none" stroke="#4393c3" stroke-width="2"/>
		<line x1="458" y1="237" x2="562" y2="237" stroke="#4393c3" stroke-width="1"/>
	</g>
	<text x="480" y="229.7" fill="#000000" font-family="Verdana" font-size="12">PRODUCT</text>
	<text x="463" y="254.7" fill="#000000" font-family="Verdana" font-size="12">appellation</text>
	<line x1="463" y1="257" x2="530" y2="257" style="fill:none;stroke:#000000;stroke-width:1;stroke-dasharray:4;"/>
	<text x="463" y="271.7" fill="#000000" font-family="Verdana" font-size="12">area</text>
	<text x="463" y="288.7" fill="#000000" font-family="Verdana" font-size="12">type</text>
	<text x="463" y="305.7" fill="#000000" font-family="Verdana" font-size="12">cuvée/domaine</text>
	<text x="463" y="322.7" fill="#000000" font-family="Verdana" font-size="12">capacity</text>
	<text x="463" y="339.7" fill="#000000" font-family="Verdana" font-size="12">vintage</text>
	<text x="463" y="356.8" fill="#000000" font-family="Verdana" font-size="12">color</text>
	<text x="463" y="373.8" fill="#000000" font-family="Verdana" font-size="12">alcohol volume</text>
	<text x="463" y="390.8" fill="#000000" font-family="Verdana" font-size="12">price</text>
	<text x="463" y="407.8" fill="#000000" font-family="Verdana" font-size="12">hs code</text>
	<text x="463" y="424.8" fill="#000000" font-family="Verdana" font-size="12">description</text>
	<text x="463" y="441.8" fill="#000000" font-family="Verdana" font-size="12">picture</text>
	<text x="463" y="458.8" fill="#000000" font-family="Verdana" font-size="12">status</text>
	<text x="463" y="475.8" fill="#000000" font-family="Verdana" font-size="12">created at</text>
	<text x="463" y="492.8" fill="#000000" font-family="Verdana" font-size="12">updated at</text>
</g>

<!-- Entity PRODUCT_CATEGORY -->
<g id="entity-PRODUCT_CATEGORY">
	<g id="frame-PRODUCT_CATEGORY">
		<rect x="590" y="85" width="144" height="25" fill="#92c5de" stroke="#92c5de" stroke-width="0"/>
		<rect x="590" y="110.0" width="144" height="77" fill="#d1e5f0" stroke="#d1e5f0" stroke-width="0"/>
		<rect x="590" y="85" width="144" height="102" fill="none" stroke="#4393c3" stroke-width="2"/>
		<line x1="590" y1="110" x2="734" y2="110" stroke="#4393c3" stroke-width="1"/>
	</g>
	<text x="595" y="102.7" fill="#000000" font-family="Verdana" font-size="12">PRODUCT_CATEGORY</text>
	<text x="595" y="127.7" fill="#000000" font-family="Verdana" font-size="12">name</text>
	<line x1="595" y1="130" x2="630" y2="130" stroke="#000000" stroke-width="1"/>
	<text x="595" y="144.8" fill="#000000" font-family="Verdana" font-size="12">selection filter</text>
	<text x="595" y="161.8" fill="#000000" font-family="Verdana" font-size="12">created at</text>
	<text x="595" y="178.8" fill="#000000" font-family="Verdana" font-size="12">updated at</text>
</g>

<!-- Entity PRODUCT_BRAND -->
<g id="entity-PRODUCT_BRAND">
	<g id="frame-PRODUCT_BRAND">
		<rect x="601" y="525" width="122" height="25" fill="#92c5de" stroke="#92c5de" stroke-width="0"/>
		<rect x="601" y="550.0" width="122" height="93" fill="#d1e5f0" stroke="#d1e5f0" stroke-width="0"/>
		<rect x="601" y="525" width="122" height="118" fill="none" stroke="#4393c3" stroke-width="2"/>
		<line x1="601" y1="550" x2="723" y2="550" stroke="#4393c3" stroke-width="1"/>
	</g>
	<text x="606" y="542.7" fill="#000000" font-family="Verdana" font-size="12">PRODUCT_BRAND</text>
	<text x="606" y="567.7" fill="#000000" font-family="Verdana" font-size="12">name</text>
	<line x1="606" y1="570" x2="641" y2="570" stroke="#000000" stroke-width="1"/>
	<text x="606" y="584.8" fill="#000000" font-family="Verdana" font-size="12">picture</text>
	<text x="606" y="601.8" fill="#000000" font-family="Verdana" font-size="12">selection filter</text>
	<text x="606" y="618.8" fill="#000000" font-family="Verdana" font-size="12">created at</text>
	<text x="606" y="635.8" fill="#000000" font-family="Verdana" font-size="12">updated at</text>
</g>

<!-- Entity CARRIER -->
<g id="entity-CARRIER">
	<g id="frame-CARRIER">
		<rect x="45" y="550" width="66" height="25" fill="#92c5de" stroke="#92c5de" stroke-width="0"/>
		<rect x="45" y="575.0" width="66" height="43" fill="#d1e5f0" stroke="#d1e5f0" stroke-width="0"/>
		<rect x="45" y="550" width="66" height="68" fill="none" stroke="#4393c3" stroke-width="2"/>
		<line x1="45" y1="575" x2="111" y2="575" stroke="#4393c3" stroke-width="1"/>
	</g>
	<text x="50" y="567.7" fill="#000000" font-family="Verdana" font-size="12">CARRIER</text>
	<text x="50" y="592.8" fill="#000000" font-family="Verdana" font-size="12">name</text>
	<line x1="50" y1="595" x2="85" y2="595" stroke="#000000" stroke-width="1"/>
	<text x="50" y="609.8" fill="#000000" font-family="Verdana" font-size="12">mode</text>
</g>

<!-- Entity USER -->
<g id="entity-USER">
	<g id="frame-USER">
		<rect x="181" y="9" width="104" height="25" fill="#92c5de" stroke="#92c5de" stroke-width="0"/>
		<rect x="181" y="34.0" width="104" height="229" fill="#d1e5f0" stroke="#d1e5f0" stroke-width="0"/>
		<rect x="181" y="9" width="104" height="254" fill="none" stroke="#4393c3" stroke-width="2"/>
		<line x1="181" y1="34" x2="285" y2="34" stroke="#4393c3" stroke-width="1"/>
	</g>
	<text x="216" y="26.7" fill="#000000" font-family="Verdana" font-size="12">USER</text>
	<text x="186" y="51.7" fill="#000000" font-family="Verdana" font-size="12">role</text>
	<line x1="186" y1="54" x2="210" y2="54" stroke="#000000" stroke-width="1"/>
	<text x="186" y="68.7" fill="#000000" font-family="Verdana" font-size="12">company name</text>
	<text x="186" y="85.7" fill="#000000" font-family="Verdana" font-size="12">firstname</text>
	<text x="186" y="102.7" fill="#000000" font-family="Verdana" font-size="12">lastname</text>
	<text x="186" y="119.7" fill="#000000" font-family="Verdana" font-size="12">email</text>
	<text x="186" y="136.8" fill="#000000" font-family="Verdana" font-size="12">password</text>
	<text x="186" y="153.8" fill="#000000" font-family="Verdana" font-size="12">address</text>
	<text x="186" y="170.8" fill="#000000" font-family="Verdana" font-size="12">zip code</text>
	<text x="186" y="187.8" fill="#000000" font-family="Verdana" font-size="12">city</text>
	<text x="186" y="204.8" fill="#000000" font-family="Verdana" font-size="12">country</text>
	<text x="186" y="221.8" fill="#000000" font-family="Verdana" font-size="12">phone number</text>
	<text x="186" y="238.8" fill="#000000" font-family="Verdana" font-size="12">created at</text>
	<text x="186" y="255.8" fill="#000000" font-family="Verdana" font-size="12">updated at</text>
</g>

<!-- Entity ORDER -->
<g id="entity-ORDER">
	<g id="frame-ORDER">
		<rect x="326" y="525" width="112" height="25" fill="#92c5de" stroke="#92c5de" stroke-width="0"/>
		<rect x="326" y="550.0" width="112" height="93" fill="#d1e5f0" stroke="#d1e5f0" stroke-width="0"/>
		<rect x="326" y="525" width="112" height="118" fill="none" stroke="#4393c3" stroke-width="2"/>
		<line x1="326" y1="550" x2="438" y2="550" stroke="#4393c3" stroke-width="1"/>
	</g>
	<text x="360" y="542.7" fill="#000000" font-family="Verdana" font-size="12">ORDER</text>
	<text x="331" y="567.7" fill="#000000" font-family="Verdana" font-size="12">total_quantity</text>
	<line x1="331" y1="570" x2="417" y2="570" style="fill:none;stroke:#000000;stroke-width:1;stroke-dasharray:4;"/>
	<text x="331" y="584.8" fill="#000000" font-family="Verdana" font-size="12">total_amount</text>
	<text x="331" y="601.8" fill="#000000" font-family="Verdana" font-size="12">tracking number</text>
	<text x="331" y="618.8" fill="#000000" font-family="Verdana" font-size="12">created at</text>
	<text x="331" y="635.8" fill="#000000" font-family="Verdana" font-size="12">updated at</text>
</g>
</svg>